<svg xmlns="http://www.w3.org/2000/svg" width="24" height="25" fill="none" viewBox="0 0 24 25">
  <g clip-path="url(#a)">
    <path stroke="currentColor" stroke-linecap="round" stroke-linejoin="round" stroke-width="3" d="M9 13.5a3 3 0 1 0 6 0 3 3 0 0 0-6 0Z"/>
    <path stroke="currentColor" stroke-linecap="round" stroke-linejoin="round" stroke-width="3" d="M12 4.5h-2a1 1 0 0 0-1 1 2 2 0 0 1-2 2H5a2 2 0 0 0-2 2v9a2 2 0 0 0 2 2h14a2 2 0 0 0 2-2v-7m-6-5h6m-3-3v6"/>
  </g>
  <defs>
    <clipPath id="a">
      <path fill="#fff" d="M0 0h24v24H0z" transform="translate(0 .5)"/>
    </clipPath>
  </defs>
</svg>
